<mxfile host="a947c06f-612b-4ddc-a064-cb883d63d9ab" modified="2020-09-17T18:59:41.838Z" agent="5.0 (Windows NT 10.0; Win64; x64) AppleWebKit/537.36 (KHTML, like Gecko) Code/1.49.0 Chrome/83.0.4103.122 Electron/9.2.1 Safari/537.36" etag="LSf6Gy4jTbS3TQW1xPYS" version="13.6.5" pages="3">
    <diagram id="kgpKYQtTHZ0yAKxKKP6v" name="Allocation Process General">
        <mxGraphModel dx="421" dy="802" grid="1" gridSize="10" guides="1" tooltips="1" connect="1" arrows="1" fold="1" page="1" pageScale="1" pageWidth="850" pageHeight="1100" math="0" shadow="0">
            <root>
                <mxCell id="0"/>
                <mxCell id="1" parent="0"/>
                <mxCell id="B98JXw8MIbZwQ-wQntFU-1" value="Source Data" style="strokeWidth=2;html=1;shape=mxgraph.flowchart.database;whiteSpace=wrap;align=center;" parent="1" vertex="1">
                    <mxGeometry x="70" y="15" width="450" height="250" as="geometry"/>
                </mxCell>
                <mxCell id="2" style="edgeStyle=orthogonalEdgeStyle;rounded=0;orthogonalLoop=1;jettySize=auto;html=1;entryX=0.987;entryY=0.092;entryDx=0;entryDy=0;entryPerimeter=0;" parent="1" source="B98JXw8MIbZwQ-wQntFU-3" target="B98JXw8MIbZwQ-wQntFU-10" edge="1">
                    <mxGeometry relative="1" as="geometry">
                        <Array as="points">
                            <mxPoint x="140" y="290"/>
                            <mxPoint x="490" y="290"/>
                            <mxPoint x="490" y="446"/>
                            <mxPoint x="410" y="446"/>
                        </Array>
                    </mxGeometry>
                </mxCell>
                <mxCell id="B98JXw8MIbZwQ-wQntFU-3" value="Parcels" style="shape=parallelogram;html=1;strokeWidth=2;perimeter=parallelogramPerimeter;whiteSpace=wrap;rounded=1;arcSize=12;size=0.23;" parent="1" vertex="1">
                    <mxGeometry x="95" y="170" width="100" height="60" as="geometry"/>
                </mxCell>
                <mxCell id="7" style="edgeStyle=orthogonalEdgeStyle;rounded=0;orthogonalLoop=1;jettySize=auto;html=1;entryX=0.989;entryY=0.048;entryDx=0;entryDy=0;entryPerimeter=0;" parent="1" source="B98JXw8MIbZwQ-wQntFU-4" target="B98JXw8MIbZwQ-wQntFU-10" edge="1">
                    <mxGeometry relative="1" as="geometry">
                        <mxPoint x="420" y="475" as="targetPoint"/>
                        <Array as="points">
                            <mxPoint x="240" y="290"/>
                            <mxPoint x="490" y="290"/>
                            <mxPoint x="490" y="443"/>
                            <mxPoint x="420" y="443"/>
                        </Array>
                    </mxGeometry>
                </mxCell>
                <mxCell id="B98JXw8MIbZwQ-wQntFU-4" value="Stations" style="shape=parallelogram;html=1;strokeWidth=2;perimeter=parallelogramPerimeter;whiteSpace=wrap;rounded=1;arcSize=12;size=0.23;" parent="1" vertex="1">
                    <mxGeometry x="195" y="170" width="100" height="60" as="geometry"/>
                </mxCell>
                <mxCell id="9" style="edgeStyle=orthogonalEdgeStyle;rounded=0;orthogonalLoop=1;jettySize=auto;html=1;exitX=0.5;exitY=1;exitDx=0;exitDy=0;entryX=0.987;entryY=0.04;entryDx=0;entryDy=0;entryPerimeter=0;" parent="1" source="B98JXw8MIbZwQ-wQntFU-6" target="B98JXw8MIbZwQ-wQntFU-10" edge="1">
                    <mxGeometry relative="1" as="geometry">
                        <mxPoint x="420" y="473" as="targetPoint"/>
                        <Array as="points">
                            <mxPoint x="445" y="290"/>
                            <mxPoint x="490" y="290"/>
                            <mxPoint x="490" y="443"/>
                        </Array>
                    </mxGeometry>
                </mxCell>
                <mxCell id="B98JXw8MIbZwQ-wQntFU-6" value="walk network dataset" style="shape=parallelogram;html=1;strokeWidth=2;perimeter=parallelogramPerimeter;whiteSpace=wrap;rounded=1;arcSize=12;size=0.23;" parent="1" vertex="1">
                    <mxGeometry x="395" y="170" width="100" height="60" as="geometry"/>
                </mxCell>
                <mxCell id="8" style="edgeStyle=orthogonalEdgeStyle;rounded=0;orthogonalLoop=1;jettySize=auto;html=1;entryX=0.997;entryY=0.037;entryDx=0;entryDy=0;entryPerimeter=0;" parent="1" source="B98JXw8MIbZwQ-wQntFU-7" target="B98JXw8MIbZwQ-wQntFU-10" edge="1">
                    <mxGeometry relative="1" as="geometry">
                        <mxPoint x="420" y="470" as="targetPoint"/>
                        <Array as="points">
                            <mxPoint x="340" y="290"/>
                            <mxPoint x="490" y="290"/>
                            <mxPoint x="490" y="443"/>
                            <mxPoint x="420" y="443"/>
                        </Array>
                    </mxGeometry>
                </mxCell>
                <mxCell id="B98JXw8MIbZwQ-wQntFU-7" value="pipeline development locations" style="shape=parallelogram;html=1;strokeWidth=2;perimeter=parallelogramPerimeter;whiteSpace=wrap;rounded=1;arcSize=12;size=0.23;" parent="1" vertex="1">
                    <mxGeometry x="295" y="170" width="100" height="60" as="geometry"/>
                </mxCell>
                <mxCell id="B98JXw8MIbZwQ-wQntFU-11" value="" style="edgeStyle=orthogonalEdgeStyle;rounded=0;orthogonalLoop=1;jettySize=auto;html=1;" parent="1" source="B98JXw8MIbZwQ-wQntFU-9" target="B98JXw8MIbZwQ-wQntFU-10" edge="1">
                    <mxGeometry relative="1" as="geometry"/>
                </mxCell>
                <mxCell id="B98JXw8MIbZwQ-wQntFU-9" value="Scenario Database created and formatted" style="rounded=1;whiteSpace=wrap;html=1;absoluteArcSize=1;arcSize=14;strokeWidth=2;" parent="1" vertex="1">
                    <mxGeometry x="60" y="425" width="170" height="100" as="geometry"/>
                </mxCell>
                <mxCell id="10" style="edgeStyle=orthogonalEdgeStyle;rounded=0;orthogonalLoop=1;jettySize=auto;html=1;entryX=1;entryY=0.5;entryDx=0;entryDy=0;" parent="1" source="B98JXw8MIbZwQ-wQntFU-29" target="B98JXw8MIbZwQ-wQntFU-30" edge="1">
                    <mxGeometry relative="1" as="geometry">
                        <Array as="points">
                            <mxPoint x="720" y="853"/>
                        </Array>
                    </mxGeometry>
                </mxCell>
                <mxCell id="B98JXw8MIbZwQ-wQntFU-29" value="Control Table by Segment" style="shape=parallelogram;html=1;strokeWidth=2;perimeter=parallelogramPerimeter;whiteSpace=wrap;rounded=1;arcSize=12;size=0.23;" parent="1" vertex="1">
                    <mxGeometry x="660" y="110" width="130" height="60" as="geometry"/>
                </mxCell>
                <mxCell id="dU-bjV_RvkRENs6KI_GZ-2" value="Input Data" style="text;html=1;strokeColor=none;fillColor=none;align=center;verticalAlign=middle;whiteSpace=wrap;rounded=0;" parent="1" vertex="1">
                    <mxGeometry x="20" y="40" width="90" height="20" as="geometry"/>
                </mxCell>
                <mxCell id="dU-bjV_RvkRENs6KI_GZ-3" value="" style="shape=link;html=1;" parent="1" edge="1">
                    <mxGeometry width="100" relative="1" as="geometry">
                        <mxPoint y="360" as="sourcePoint"/>
                        <mxPoint x="850" y="360" as="targetPoint"/>
                    </mxGeometry>
                </mxCell>
                <mxCell id="dU-bjV_RvkRENs6KI_GZ-4" value="Generalized Procedure" style="text;html=1;strokeColor=none;fillColor=none;align=center;verticalAlign=middle;whiteSpace=wrap;rounded=0;" parent="1" vertex="1">
                    <mxGeometry x="20" y="390" width="140" height="20" as="geometry"/>
                </mxCell>
                <mxCell id="hfDr_TblIXwXVqEV-owa-10" value="" style="group" parent="1" vertex="1" connectable="0">
                    <mxGeometry x="280" y="440" width="150" height="460" as="geometry"/>
                </mxCell>
                <mxCell id="B98JXw8MIbZwQ-wQntFU-10" value="&lt;b&gt;Source data appended to scenario DB&lt;/b&gt;" style="whiteSpace=wrap;html=1;rounded=1;strokeWidth=2;arcSize=14;" parent="hfDr_TblIXwXVqEV-owa-10" vertex="1">
                    <mxGeometry width="150" height="94.70588235294117" as="geometry"/>
                </mxCell>
                <mxCell id="B98JXw8MIbZwQ-wQntFU-14" value="&lt;b&gt;Developement Suitability Calculated &lt;br&gt;&lt;/b&gt;&lt;br&gt;(see Suitability Calculation)" style="whiteSpace=wrap;html=1;rounded=1;strokeWidth=2;arcSize=14;" parent="hfDr_TblIXwXVqEV-owa-10" vertex="1">
                    <mxGeometry y="121.76470588235294" width="150" height="94.70588235294117" as="geometry"/>
                </mxCell>
                <mxCell id="B98JXw8MIbZwQ-wQntFU-15" value="" style="edgeStyle=orthogonalEdgeStyle;rounded=0;orthogonalLoop=1;jettySize=auto;html=1;" parent="hfDr_TblIXwXVqEV-owa-10" source="B98JXw8MIbZwQ-wQntFU-10" target="B98JXw8MIbZwQ-wQntFU-14" edge="1">
                    <mxGeometry relative="1" as="geometry"/>
                </mxCell>
                <mxCell id="B98JXw8MIbZwQ-wQntFU-26" value="&lt;b&gt;Change Capacity Calculated&lt;/b&gt;" style="whiteSpace=wrap;html=1;rounded=1;strokeWidth=2;arcSize=14;" parent="hfDr_TblIXwXVqEV-owa-10" vertex="1">
                    <mxGeometry y="243.52941176470588" width="150" height="94.70588235294117" as="geometry"/>
                </mxCell>
                <mxCell id="B98JXw8MIbZwQ-wQntFU-27" value="" style="edgeStyle=orthogonalEdgeStyle;rounded=0;orthogonalLoop=1;jettySize=auto;html=1;" parent="hfDr_TblIXwXVqEV-owa-10" source="B98JXw8MIbZwQ-wQntFU-14" target="B98JXw8MIbZwQ-wQntFU-26" edge="1">
                    <mxGeometry relative="1" as="geometry"/>
                </mxCell>
                <mxCell id="B98JXw8MIbZwQ-wQntFU-30" value="&lt;b&gt;Capacity Allocated&lt;br&gt;&amp;nbsp;to Parcels&lt;/b&gt;" style="whiteSpace=wrap;html=1;rounded=1;strokeWidth=2;arcSize=14;" parent="hfDr_TblIXwXVqEV-owa-10" vertex="1">
                    <mxGeometry y="365.29411764705884" width="150" height="94.70588235294117" as="geometry"/>
                </mxCell>
                <mxCell id="B98JXw8MIbZwQ-wQntFU-31" value="" style="edgeStyle=orthogonalEdgeStyle;rounded=0;orthogonalLoop=1;jettySize=auto;html=1;" parent="hfDr_TblIXwXVqEV-owa-10" source="B98JXw8MIbZwQ-wQntFU-26" target="B98JXw8MIbZwQ-wQntFU-30" edge="1">
                    <mxGeometry relative="1" as="geometry"/>
                </mxCell>
            </root>
        </mxGraphModel>
    </diagram>
    <diagram id="YgePdt-ZjOaKXcKPsFAY" name="Suitability Calculation">
        <mxGraphModel dx="1271" dy="802" grid="1" gridSize="10" guides="1" tooltips="1" connect="1" arrows="1" fold="1" page="1" pageScale="1" pageWidth="850" pageHeight="1100" math="0" shadow="0">
            <root>
                <mxCell id="oKbmgsCJO1qK6zfzRRM1-0"/>
                <mxCell id="oKbmgsCJO1qK6zfzRRM1-1" parent="oKbmgsCJO1qK6zfzRRM1-0"/>
                <mxCell id="M2d2xbPwVepsozG_OI-g-2" style="edgeStyle=orthogonalEdgeStyle;rounded=0;orthogonalLoop=1;jettySize=auto;html=1;exitX=1;exitY=0.5;exitDx=0;exitDy=0;entryX=0;entryY=0.5;entryDx=0;entryDy=0;" parent="oKbmgsCJO1qK6zfzRRM1-1" source="M2d2xbPwVepsozG_OI-g-0" target="M2d2xbPwVepsozG_OI-g-1" edge="1">
                    <mxGeometry relative="1" as="geometry">
                        <Array as="points">
                            <mxPoint x="-120" y="378"/>
                        </Array>
                    </mxGeometry>
                </mxCell>
                <mxCell id="M2d2xbPwVepsozG_OI-g-12" style="edgeStyle=orthogonalEdgeStyle;rounded=0;orthogonalLoop=1;jettySize=auto;html=1;exitX=1;exitY=0.5;exitDx=0;exitDy=0;entryX=0;entryY=0.5;entryDx=0;entryDy=0;" parent="oKbmgsCJO1qK6zfzRRM1-1" source="M2d2xbPwVepsozG_OI-g-0" target="M2d2xbPwVepsozG_OI-g-9" edge="1">
                    <mxGeometry relative="1" as="geometry">
                        <Array as="points">
                            <mxPoint x="-579" y="378"/>
                            <mxPoint x="-190" y="378"/>
                            <mxPoint x="-190" y="575"/>
                        </Array>
                    </mxGeometry>
                </mxCell>
                <mxCell id="M2d2xbPwVepsozG_OI-g-42" style="edgeStyle=orthogonalEdgeStyle;rounded=0;orthogonalLoop=1;jettySize=auto;html=1;entryX=0;entryY=0.5;entryDx=0;entryDy=0;" parent="oKbmgsCJO1qK6zfzRRM1-1" source="M2d2xbPwVepsozG_OI-g-0" target="M2d2xbPwVepsozG_OI-g-41" edge="1">
                    <mxGeometry relative="1" as="geometry">
                        <Array as="points">
                            <mxPoint x="-190" y="378"/>
                            <mxPoint x="-190" y="777"/>
                        </Array>
                    </mxGeometry>
                </mxCell>
                <mxCell id="Zmi4wPi4DVPU643fr-M3-5" style="edgeStyle=orthogonalEdgeStyle;rounded=0;orthogonalLoop=1;jettySize=auto;html=1;entryX=0;entryY=0.5;entryDx=0;entryDy=0;" parent="oKbmgsCJO1qK6zfzRRM1-1" source="M2d2xbPwVepsozG_OI-g-0" target="M2d2xbPwVepsozG_OI-g-63" edge="1">
                    <mxGeometry relative="1" as="geometry">
                        <Array as="points">
                            <mxPoint x="-190" y="378"/>
                            <mxPoint x="-190" y="1232"/>
                        </Array>
                    </mxGeometry>
                </mxCell>
                <mxCell id="deulCfn8G_IX_LWm23YG-7" style="edgeStyle=orthogonalEdgeStyle;rounded=0;orthogonalLoop=1;jettySize=auto;html=1;exitX=1;exitY=0.5;exitDx=0;exitDy=0;entryX=0;entryY=0.5;entryDx=0;entryDy=0;" parent="oKbmgsCJO1qK6zfzRRM1-1" source="M2d2xbPwVepsozG_OI-g-0" target="deulCfn8G_IX_LWm23YG-5" edge="1">
                    <mxGeometry relative="1" as="geometry">
                        <mxPoint x="-140" y="1560" as="targetPoint"/>
                        <Array as="points">
                            <mxPoint x="-190" y="378"/>
                            <mxPoint x="-190" y="1575"/>
                        </Array>
                    </mxGeometry>
                </mxCell>
                <mxCell id="M2d2xbPwVepsozG_OI-g-0" value="Parcels" style="shape=parallelogram;html=1;strokeWidth=2;perimeter=parallelogramPerimeter;whiteSpace=wrap;rounded=1;arcSize=12;size=0.23;" parent="oKbmgsCJO1qK6zfzRRM1-1" vertex="1">
                    <mxGeometry x="-730" y="320" width="170" height="90" as="geometry"/>
                </mxCell>
                <mxCell id="M2d2xbPwVepsozG_OI-g-4" value="" style="edgeStyle=orthogonalEdgeStyle;rounded=0;orthogonalLoop=1;jettySize=auto;html=1;" parent="oKbmgsCJO1qK6zfzRRM1-1" source="M2d2xbPwVepsozG_OI-g-1" target="M2d2xbPwVepsozG_OI-g-3" edge="1">
                    <mxGeometry relative="1" as="geometry"/>
                </mxCell>
                <mxCell id="M2d2xbPwVepsozG_OI-g-6" value="" style="edgeStyle=orthogonalEdgeStyle;rounded=0;orthogonalLoop=1;jettySize=auto;html=1;" parent="oKbmgsCJO1qK6zfzRRM1-1" source="M2d2xbPwVepsozG_OI-g-1" target="M2d2xbPwVepsozG_OI-g-5" edge="1">
                    <mxGeometry relative="1" as="geometry">
                        <Array as="points">
                            <mxPoint x="-40" y="462.5"/>
                        </Array>
                    </mxGeometry>
                </mxCell>
                <mxCell id="M2d2xbPwVepsozG_OI-g-1" value="Evaluate&amp;nbsp;&lt;br&gt;Parcel&amp;nbsp; Development Opportunity Site" style="rhombus;whiteSpace=wrap;html=1;" parent="oKbmgsCJO1qK6zfzRRM1-1" vertex="1">
                    <mxGeometry x="-120" y="310" width="160" height="150" as="geometry"/>
                </mxCell>
                <mxCell id="M2d2xbPwVepsozG_OI-g-15" style="edgeStyle=orthogonalEdgeStyle;rounded=0;orthogonalLoop=1;jettySize=auto;html=1;entryX=0;entryY=0.5;entryDx=0;entryDy=0;" parent="oKbmgsCJO1qK6zfzRRM1-1" source="M2d2xbPwVepsozG_OI-g-3" target="M2d2xbPwVepsozG_OI-g-13" edge="1">
                    <mxGeometry relative="1" as="geometry"/>
                </mxCell>
                <mxCell id="M2d2xbPwVepsozG_OI-g-3" value="&lt;font style=&quot;font-size: 18px&quot;&gt;No&lt;br&gt;&lt;/font&gt;&lt;br&gt;Set DO weight = 0.0" style="whiteSpace=wrap;html=1;" parent="oKbmgsCJO1qK6zfzRRM1-1" vertex="1">
                    <mxGeometry x="140" y="347.5" width="180" height="75" as="geometry"/>
                </mxCell>
                <mxCell id="M2d2xbPwVepsozG_OI-g-16" style="edgeStyle=orthogonalEdgeStyle;rounded=0;orthogonalLoop=1;jettySize=auto;html=1;exitX=1;exitY=0.5;exitDx=0;exitDy=0;entryX=0;entryY=0.5;entryDx=0;entryDy=0;" parent="oKbmgsCJO1qK6zfzRRM1-1" source="M2d2xbPwVepsozG_OI-g-5" target="M2d2xbPwVepsozG_OI-g-13" edge="1">
                    <mxGeometry relative="1" as="geometry"/>
                </mxCell>
                <mxCell id="M2d2xbPwVepsozG_OI-g-5" value="&lt;font style=&quot;font-size: 18px&quot;&gt;Yes&lt;br&gt;&lt;/font&gt;&lt;br&gt;set DO weight to 0.6" style="whiteSpace=wrap;html=1;" parent="oKbmgsCJO1qK6zfzRRM1-1" vertex="1">
                    <mxGeometry x="140" y="432.5" width="180" height="80" as="geometry"/>
                </mxCell>
                <mxCell id="M2d2xbPwVepsozG_OI-g-7" value="" style="edgeStyle=orthogonalEdgeStyle;rounded=0;orthogonalLoop=1;jettySize=auto;html=1;" parent="oKbmgsCJO1qK6zfzRRM1-1" source="M2d2xbPwVepsozG_OI-g-9" target="M2d2xbPwVepsozG_OI-g-10" edge="1">
                    <mxGeometry relative="1" as="geometry"/>
                </mxCell>
                <mxCell id="M2d2xbPwVepsozG_OI-g-8" value="" style="edgeStyle=orthogonalEdgeStyle;rounded=0;orthogonalLoop=1;jettySize=auto;html=1;" parent="oKbmgsCJO1qK6zfzRRM1-1" source="M2d2xbPwVepsozG_OI-g-9" target="M2d2xbPwVepsozG_OI-g-11" edge="1">
                    <mxGeometry relative="1" as="geometry">
                        <Array as="points">
                            <mxPoint x="-40" y="652.5"/>
                        </Array>
                    </mxGeometry>
                </mxCell>
                <mxCell id="M2d2xbPwVepsozG_OI-g-9" value="Evaluate&lt;br&gt;Parcel Landuse" style="rhombus;whiteSpace=wrap;html=1;" parent="oKbmgsCJO1qK6zfzRRM1-1" vertex="1">
                    <mxGeometry x="-120" y="500" width="160" height="150" as="geometry"/>
                </mxCell>
                <mxCell id="M2d2xbPwVepsozG_OI-g-17" style="edgeStyle=orthogonalEdgeStyle;rounded=0;orthogonalLoop=1;jettySize=auto;html=1;exitX=1;exitY=0.5;exitDx=0;exitDy=0;entryX=0;entryY=0.5;entryDx=0;entryDy=0;" parent="oKbmgsCJO1qK6zfzRRM1-1" source="M2d2xbPwVepsozG_OI-g-10" target="M2d2xbPwVepsozG_OI-g-14" edge="1">
                    <mxGeometry relative="1" as="geometry"/>
                </mxCell>
                <mxCell id="M2d2xbPwVepsozG_OI-g-10" value="&lt;font style=&quot;font-size: 18px&quot;&gt;Landuse = Vacant&lt;br&gt;&lt;/font&gt;&lt;br&gt;Set vacancy weight = 0.15" style="whiteSpace=wrap;html=1;" parent="oKbmgsCJO1qK6zfzRRM1-1" vertex="1">
                    <mxGeometry x="140" y="537.5" width="180" height="75" as="geometry"/>
                </mxCell>
                <mxCell id="M2d2xbPwVepsozG_OI-g-18" style="edgeStyle=orthogonalEdgeStyle;rounded=0;orthogonalLoop=1;jettySize=auto;html=1;exitX=1;exitY=0.5;exitDx=0;exitDy=0;entryX=0;entryY=0.5;entryDx=0;entryDy=0;" parent="oKbmgsCJO1qK6zfzRRM1-1" source="M2d2xbPwVepsozG_OI-g-11" target="M2d2xbPwVepsozG_OI-g-14" edge="1">
                    <mxGeometry relative="1" as="geometry">
                        <mxPoint x="350" y="622.5" as="targetPoint"/>
                    </mxGeometry>
                </mxCell>
                <mxCell id="M2d2xbPwVepsozG_OI-g-11" value="&lt;font style=&quot;font-size: 18px&quot;&gt;Landuse = any other&lt;/font&gt;&lt;br&gt;&lt;br&gt;Set vacancy weight = 0.0" style="whiteSpace=wrap;html=1;" parent="oKbmgsCJO1qK6zfzRRM1-1" vertex="1">
                    <mxGeometry x="140" y="622.5" width="180" height="80" as="geometry"/>
                </mxCell>
                <mxCell id="deulCfn8G_IX_LWm23YG-22" style="edgeStyle=orthogonalEdgeStyle;rounded=0;orthogonalLoop=1;jettySize=auto;html=1;exitX=1;exitY=0.5;exitDx=0;exitDy=0;entryX=0.5;entryY=0;entryDx=0;entryDy=0;" parent="oKbmgsCJO1qK6zfzRRM1-1" source="M2d2xbPwVepsozG_OI-g-13" target="deulCfn8G_IX_LWm23YG-16" edge="1">
                    <mxGeometry relative="1" as="geometry"/>
                </mxCell>
                <mxCell id="M2d2xbPwVepsozG_OI-g-13" value="DO weight&lt;br&gt;(max = 0.6)" style="ellipse;whiteSpace=wrap;html=1;aspect=fixed;" parent="oKbmgsCJO1qK6zfzRRM1-1" vertex="1">
                    <mxGeometry x="530" y="380.5" width="80" height="80" as="geometry"/>
                </mxCell>
                <mxCell id="deulCfn8G_IX_LWm23YG-21" style="edgeStyle=orthogonalEdgeStyle;rounded=0;orthogonalLoop=1;jettySize=auto;html=1;exitX=1;exitY=0.5;exitDx=0;exitDy=0;entryX=0.5;entryY=0;entryDx=0;entryDy=0;" parent="oKbmgsCJO1qK6zfzRRM1-1" source="M2d2xbPwVepsozG_OI-g-14" target="deulCfn8G_IX_LWm23YG-16" edge="1">
                    <mxGeometry relative="1" as="geometry">
                        <mxPoint x="630" y="1862.857142857143" as="targetPoint"/>
                    </mxGeometry>
                </mxCell>
                <mxCell id="M2d2xbPwVepsozG_OI-g-14" value="Vacancy weight&lt;br&gt;(max = 0.15)" style="ellipse;whiteSpace=wrap;html=1;aspect=fixed;" parent="oKbmgsCJO1qK6zfzRRM1-1" vertex="1">
                    <mxGeometry x="530" y="582.5" width="80" height="80" as="geometry"/>
                </mxCell>
                <mxCell id="M2d2xbPwVepsozG_OI-g-44" value="" style="edgeStyle=orthogonalEdgeStyle;rounded=0;orthogonalLoop=1;jettySize=auto;html=1;entryX=0.5;entryY=0;entryDx=0;entryDy=0;" parent="oKbmgsCJO1qK6zfzRRM1-1" source="M2d2xbPwVepsozG_OI-g-41" target="M2d2xbPwVepsozG_OI-g-43" edge="1">
                    <mxGeometry relative="1" as="geometry">
                        <Array as="points">
                            <mxPoint x="113" y="777.5"/>
                        </Array>
                    </mxGeometry>
                </mxCell>
                <mxCell id="M2d2xbPwVepsozG_OI-g-47" value="" style="edgeStyle=orthogonalEdgeStyle;rounded=0;orthogonalLoop=1;jettySize=auto;html=1;entryX=0.5;entryY=0;entryDx=0;entryDy=0;" parent="oKbmgsCJO1qK6zfzRRM1-1" source="M2d2xbPwVepsozG_OI-g-41" target="M2d2xbPwVepsozG_OI-g-46" edge="1">
                    <mxGeometry relative="1" as="geometry">
                        <Array as="points">
                            <mxPoint x="248" y="777.5"/>
                        </Array>
                    </mxGeometry>
                </mxCell>
                <mxCell id="M2d2xbPwVepsozG_OI-g-41" value="Calculate&lt;br&gt;Developable &lt;br&gt;Area" style="rhombus;whiteSpace=wrap;html=1;" parent="oKbmgsCJO1qK6zfzRRM1-1" vertex="1">
                    <mxGeometry x="-125" y="702.5" width="160" height="150" as="geometry"/>
                </mxCell>
                <mxCell id="M2d2xbPwVepsozG_OI-g-57" style="edgeStyle=orthogonalEdgeStyle;rounded=0;orthogonalLoop=1;jettySize=auto;html=1;exitX=0.5;exitY=1;exitDx=0;exitDy=0;entryX=0.448;entryY=0;entryDx=0;entryDy=0;entryPerimeter=0;" parent="oKbmgsCJO1qK6zfzRRM1-1" source="M2d2xbPwVepsozG_OI-g-43" target="M2d2xbPwVepsozG_OI-g-52" edge="1">
                    <mxGeometry relative="1" as="geometry"/>
                </mxCell>
                <mxCell id="M2d2xbPwVepsozG_OI-g-43" value="Calcuate &lt;br&gt;Base area&amp;nbsp;" style="rhombus;whiteSpace=wrap;html=1;" parent="oKbmgsCJO1qK6zfzRRM1-1" vertex="1">
                    <mxGeometry x="50" y="792.5" width="125" height="90" as="geometry"/>
                </mxCell>
                <mxCell id="M2d2xbPwVepsozG_OI-g-58" style="edgeStyle=orthogonalEdgeStyle;rounded=0;orthogonalLoop=1;jettySize=auto;html=1;exitX=0.5;exitY=1;exitDx=0;exitDy=0;" parent="oKbmgsCJO1qK6zfzRRM1-1" source="M2d2xbPwVepsozG_OI-g-46" target="M2d2xbPwVepsozG_OI-g-52" edge="1">
                    <mxGeometry relative="1" as="geometry"/>
                </mxCell>
                <mxCell id="M2d2xbPwVepsozG_OI-g-46" value="Calculate&lt;br&gt;&amp;nbsp;Loss Factor" style="rhombus;whiteSpace=wrap;html=1;" parent="oKbmgsCJO1qK6zfzRRM1-1" vertex="1">
                    <mxGeometry x="185" y="792.5" width="125" height="90" as="geometry"/>
                </mxCell>
                <mxCell id="M2d2xbPwVepsozG_OI-g-60" value="" style="edgeStyle=orthogonalEdgeStyle;rounded=0;orthogonalLoop=1;jettySize=auto;html=1;" parent="oKbmgsCJO1qK6zfzRRM1-1" source="M2d2xbPwVepsozG_OI-g-52" target="M2d2xbPwVepsozG_OI-g-59" edge="1">
                    <mxGeometry relative="1" as="geometry"/>
                </mxCell>
                <mxCell id="M2d2xbPwVepsozG_OI-g-52" value="Standardize&lt;br&gt;Areas" style="rhombus;whiteSpace=wrap;html=1;" parent="oKbmgsCJO1qK6zfzRRM1-1" vertex="1">
                    <mxGeometry x="120" y="902.5" width="125" height="90" as="geometry"/>
                </mxCell>
                <mxCell id="M2d2xbPwVepsozG_OI-g-62" style="edgeStyle=orthogonalEdgeStyle;rounded=0;orthogonalLoop=1;jettySize=auto;html=1;exitX=1;exitY=0.5;exitDx=0;exitDy=0;entryX=0;entryY=0.5;entryDx=0;entryDy=0;" parent="oKbmgsCJO1qK6zfzRRM1-1" source="M2d2xbPwVepsozG_OI-g-59" target="M2d2xbPwVepsozG_OI-g-61" edge="1">
                    <mxGeometry relative="1" as="geometry"/>
                </mxCell>
                <mxCell id="M2d2xbPwVepsozG_OI-g-59" value="Multiply by 0.1" style="rhombus;whiteSpace=wrap;html=1;" parent="oKbmgsCJO1qK6zfzRRM1-1" vertex="1">
                    <mxGeometry x="120" y="1012.5" width="125" height="90" as="geometry"/>
                </mxCell>
                <mxCell id="deulCfn8G_IX_LWm23YG-20" style="edgeStyle=orthogonalEdgeStyle;rounded=0;orthogonalLoop=1;jettySize=auto;html=1;exitX=1;exitY=0.5;exitDx=0;exitDy=0;entryX=0.5;entryY=0;entryDx=0;entryDy=0;" parent="oKbmgsCJO1qK6zfzRRM1-1" source="M2d2xbPwVepsozG_OI-g-61" target="deulCfn8G_IX_LWm23YG-16" edge="1">
                    <mxGeometry relative="1" as="geometry"/>
                </mxCell>
                <mxCell id="M2d2xbPwVepsozG_OI-g-61" value="DevArea&lt;br&gt;Weight&lt;br&gt;(max = 0.1)" style="ellipse;whiteSpace=wrap;html=1;aspect=fixed;" parent="oKbmgsCJO1qK6zfzRRM1-1" vertex="1">
                    <mxGeometry x="530" y="1017.5" width="80" height="80" as="geometry"/>
                </mxCell>
                <mxCell id="deulCfn8G_IX_LWm23YG-1" style="edgeStyle=orthogonalEdgeStyle;rounded=0;orthogonalLoop=1;jettySize=auto;html=1;exitX=1;exitY=0.5;exitDx=0;exitDy=0;entryX=0;entryY=0.5;entryDx=0;entryDy=0;" parent="oKbmgsCJO1qK6zfzRRM1-1" source="M2d2xbPwVepsozG_OI-g-63" target="Zmi4wPi4DVPU643fr-M3-8" edge="1">
                    <mxGeometry relative="1" as="geometry"/>
                </mxCell>
                <mxCell id="deulCfn8G_IX_LWm23YG-2" style="edgeStyle=orthogonalEdgeStyle;rounded=0;orthogonalLoop=1;jettySize=auto;html=1;exitX=1;exitY=0.5;exitDx=0;exitDy=0;entryX=0;entryY=0.5;entryDx=0;entryDy=0;" parent="oKbmgsCJO1qK6zfzRRM1-1" source="M2d2xbPwVepsozG_OI-g-63" target="Zmi4wPi4DVPU643fr-M3-10" edge="1">
                    <mxGeometry relative="1" as="geometry"/>
                </mxCell>
                <mxCell id="M2d2xbPwVepsozG_OI-g-63" value="Evaluate &lt;br&gt;Parcel &lt;br&gt;inclusion in &lt;br&gt;Walkshed" style="rhombus;whiteSpace=wrap;html=1;" parent="oKbmgsCJO1qK6zfzRRM1-1" vertex="1">
                    <mxGeometry x="-130" y="1157.5" width="160" height="150" as="geometry"/>
                </mxCell>
                <mxCell id="Zmi4wPi4DVPU643fr-M3-2" style="edgeStyle=orthogonalEdgeStyle;rounded=0;orthogonalLoop=1;jettySize=auto;html=1;exitX=1;exitY=0.5;exitDx=0;exitDy=0;" parent="oKbmgsCJO1qK6zfzRRM1-1" source="Zmi4wPi4DVPU643fr-M3-0" target="Zmi4wPi4DVPU643fr-M3-1" edge="1">
                    <mxGeometry relative="1" as="geometry"/>
                </mxCell>
                <mxCell id="Zmi4wPi4DVPU643fr-M3-0" value="Walk Network" style="shape=parallelogram;html=1;strokeWidth=2;perimeter=parallelogramPerimeter;whiteSpace=wrap;rounded=1;arcSize=12;size=0.23;" parent="oKbmgsCJO1qK6zfzRRM1-1" vertex="1">
                    <mxGeometry x="-750" y="1187.5" width="170" height="90" as="geometry"/>
                </mxCell>
                <mxCell id="Zmi4wPi4DVPU643fr-M3-4" style="edgeStyle=orthogonalEdgeStyle;rounded=0;orthogonalLoop=1;jettySize=auto;html=1;exitX=1;exitY=0.5;exitDx=0;exitDy=0;" parent="oKbmgsCJO1qK6zfzRRM1-1" source="Zmi4wPi4DVPU643fr-M3-1" target="Zmi4wPi4DVPU643fr-M3-3" edge="1">
                    <mxGeometry relative="1" as="geometry"/>
                </mxCell>
                <mxCell id="Zmi4wPi4DVPU643fr-M3-1" value="generate walkshed" style="rounded=1;whiteSpace=wrap;html=1;" parent="oKbmgsCJO1qK6zfzRRM1-1" vertex="1">
                    <mxGeometry x="-550" y="1202.5" width="120" height="60" as="geometry"/>
                </mxCell>
                <mxCell id="deulCfn8G_IX_LWm23YG-15" style="edgeStyle=orthogonalEdgeStyle;rounded=0;orthogonalLoop=1;jettySize=auto;html=1;exitX=1;exitY=0.5;exitDx=0;exitDy=0;entryX=0;entryY=0.5;entryDx=0;entryDy=0;" parent="oKbmgsCJO1qK6zfzRRM1-1" source="Zmi4wPi4DVPU643fr-M3-3" target="M2d2xbPwVepsozG_OI-g-63" edge="1">
                    <mxGeometry relative="1" as="geometry"/>
                </mxCell>
                <mxCell id="Zmi4wPi4DVPU643fr-M3-3" value="1/4 mile WalkShed" style="shape=parallelogram;html=1;strokeWidth=2;perimeter=parallelogramPerimeter;whiteSpace=wrap;rounded=1;arcSize=12;size=0.23;" parent="oKbmgsCJO1qK6zfzRRM1-1" vertex="1">
                    <mxGeometry x="-390" y="1187.5" width="170" height="90" as="geometry"/>
                </mxCell>
                <mxCell id="Zmi4wPi4DVPU643fr-M3-7" style="edgeStyle=orthogonalEdgeStyle;rounded=0;orthogonalLoop=1;jettySize=auto;html=1;exitX=1;exitY=0.5;exitDx=0;exitDy=0;entryX=0;entryY=0.5;entryDx=0;entryDy=0;" parent="oKbmgsCJO1qK6zfzRRM1-1" source="Zmi4wPi4DVPU643fr-M3-8" target="Zmi4wPi4DVPU643fr-M3-11" edge="1">
                    <mxGeometry relative="1" as="geometry"/>
                </mxCell>
                <mxCell id="Zmi4wPi4DVPU643fr-M3-8" value="&lt;font style=&quot;font-size: 18px&quot;&gt;In Walkshed&lt;br&gt;&lt;/font&gt;&lt;br&gt;Set walkshed weight = 0.1" style="whiteSpace=wrap;html=1;" parent="oKbmgsCJO1qK6zfzRRM1-1" vertex="1">
                    <mxGeometry x="140" y="1140" width="180" height="75" as="geometry"/>
                </mxCell>
                <mxCell id="Zmi4wPi4DVPU643fr-M3-9" style="edgeStyle=orthogonalEdgeStyle;rounded=0;orthogonalLoop=1;jettySize=auto;html=1;exitX=1;exitY=0.5;exitDx=0;exitDy=0;entryX=0;entryY=0.5;entryDx=0;entryDy=0;" parent="oKbmgsCJO1qK6zfzRRM1-1" source="Zmi4wPi4DVPU643fr-M3-10" target="Zmi4wPi4DVPU643fr-M3-11" edge="1">
                    <mxGeometry relative="1" as="geometry">
                        <mxPoint x="350" y="1227.5" as="targetPoint"/>
                    </mxGeometry>
                </mxCell>
                <mxCell id="Zmi4wPi4DVPU643fr-M3-10" value="&lt;font style=&quot;font-size: 18px&quot;&gt;Out Walkshed&lt;/font&gt;&lt;br&gt;&lt;br&gt;Set walkshed weight = 0.0" style="whiteSpace=wrap;html=1;" parent="oKbmgsCJO1qK6zfzRRM1-1" vertex="1">
                    <mxGeometry x="140" y="1227.5" width="180" height="80" as="geometry"/>
                </mxCell>
                <mxCell id="deulCfn8G_IX_LWm23YG-19" style="edgeStyle=orthogonalEdgeStyle;rounded=0;orthogonalLoop=1;jettySize=auto;html=1;exitX=1;exitY=0.5;exitDx=0;exitDy=0;entryX=0.5;entryY=0;entryDx=0;entryDy=0;" parent="oKbmgsCJO1qK6zfzRRM1-1" source="Zmi4wPi4DVPU643fr-M3-11" target="deulCfn8G_IX_LWm23YG-16" edge="1">
                    <mxGeometry relative="1" as="geometry"/>
                </mxCell>
                <mxCell id="Zmi4wPi4DVPU643fr-M3-11" value="Walkshed weight&lt;br&gt;(max = 0.1)" style="ellipse;whiteSpace=wrap;html=1;aspect=fixed;" parent="oKbmgsCJO1qK6zfzRRM1-1" vertex="1">
                    <mxGeometry x="530" y="1187.5" width="80" height="80" as="geometry"/>
                </mxCell>
                <mxCell id="deulCfn8G_IX_LWm23YG-4" style="edgeStyle=orthogonalEdgeStyle;rounded=0;orthogonalLoop=1;jettySize=auto;html=1;exitX=1;exitY=0.5;exitDx=0;exitDy=0;entryX=0;entryY=0.5;entryDx=0;entryDy=0;" parent="oKbmgsCJO1qK6zfzRRM1-1" source="deulCfn8G_IX_LWm23YG-0" target="deulCfn8G_IX_LWm23YG-3" edge="1">
                    <mxGeometry relative="1" as="geometry"/>
                </mxCell>
                <mxCell id="deulCfn8G_IX_LWm23YG-0" value="Stations" style="shape=parallelogram;html=1;strokeWidth=2;perimeter=parallelogramPerimeter;whiteSpace=wrap;rounded=1;arcSize=12;size=0.23;" parent="oKbmgsCJO1qK6zfzRRM1-1" vertex="1">
                    <mxGeometry x="-750" y="1530" width="170" height="90" as="geometry"/>
                </mxCell>
                <mxCell id="deulCfn8G_IX_LWm23YG-6" style="edgeStyle=orthogonalEdgeStyle;rounded=0;orthogonalLoop=1;jettySize=auto;html=1;entryX=0;entryY=0.5;entryDx=0;entryDy=0;" parent="oKbmgsCJO1qK6zfzRRM1-1" source="deulCfn8G_IX_LWm23YG-3" target="deulCfn8G_IX_LWm23YG-5" edge="1">
                    <mxGeometry relative="1" as="geometry"/>
                </mxCell>
                <mxCell id="deulCfn8G_IX_LWm23YG-3" value="locate parcels within 1/2 mile of stations" style="rounded=1;whiteSpace=wrap;html=1;" parent="oKbmgsCJO1qK6zfzRRM1-1" vertex="1">
                    <mxGeometry x="-530" y="1545" width="120" height="60" as="geometry"/>
                </mxCell>
                <mxCell id="deulCfn8G_IX_LWm23YG-13" style="edgeStyle=orthogonalEdgeStyle;rounded=0;orthogonalLoop=1;jettySize=auto;html=1;entryX=0;entryY=0.5;entryDx=0;entryDy=0;exitX=1;exitY=0.5;exitDx=0;exitDy=0;" parent="oKbmgsCJO1qK6zfzRRM1-1" source="deulCfn8G_IX_LWm23YG-5" target="deulCfn8G_IX_LWm23YG-9" edge="1">
                    <mxGeometry relative="1" as="geometry">
                        <mxPoint x="20" y="1575" as="sourcePoint"/>
                    </mxGeometry>
                </mxCell>
                <mxCell id="deulCfn8G_IX_LWm23YG-14" style="edgeStyle=orthogonalEdgeStyle;rounded=0;orthogonalLoop=1;jettySize=auto;html=1;exitX=1;exitY=0.5;exitDx=0;exitDy=0;entryX=0;entryY=0.5;entryDx=0;entryDy=0;" parent="oKbmgsCJO1qK6zfzRRM1-1" source="deulCfn8G_IX_LWm23YG-5" target="deulCfn8G_IX_LWm23YG-11" edge="1">
                    <mxGeometry relative="1" as="geometry"/>
                </mxCell>
                <mxCell id="deulCfn8G_IX_LWm23YG-5" value="Evaluate &lt;br&gt;Parcel &lt;br&gt;Distance to &lt;br&gt;Station" style="rhombus;whiteSpace=wrap;html=1;" parent="oKbmgsCJO1qK6zfzRRM1-1" vertex="1">
                    <mxGeometry x="-130" y="1500" width="160" height="150" as="geometry"/>
                </mxCell>
                <mxCell id="deulCfn8G_IX_LWm23YG-8" style="edgeStyle=orthogonalEdgeStyle;rounded=0;orthogonalLoop=1;jettySize=auto;html=1;exitX=1;exitY=0.5;exitDx=0;exitDy=0;entryX=0;entryY=0.5;entryDx=0;entryDy=0;" parent="oKbmgsCJO1qK6zfzRRM1-1" source="deulCfn8G_IX_LWm23YG-9" target="deulCfn8G_IX_LWm23YG-12" edge="1">
                    <mxGeometry relative="1" as="geometry"/>
                </mxCell>
                <mxCell id="deulCfn8G_IX_LWm23YG-9" value="&lt;font style=&quot;font-size: 18px&quot;&gt;In Station Area&lt;br&gt;&lt;/font&gt;&lt;br&gt;Set walkshed weight = 0.05" style="whiteSpace=wrap;html=1;" parent="oKbmgsCJO1qK6zfzRRM1-1" vertex="1">
                    <mxGeometry x="130" y="1491.25" width="180" height="75" as="geometry"/>
                </mxCell>
                <mxCell id="deulCfn8G_IX_LWm23YG-10" style="edgeStyle=orthogonalEdgeStyle;rounded=0;orthogonalLoop=1;jettySize=auto;html=1;exitX=1;exitY=0.5;exitDx=0;exitDy=0;entryX=0;entryY=0.5;entryDx=0;entryDy=0;" parent="oKbmgsCJO1qK6zfzRRM1-1" source="deulCfn8G_IX_LWm23YG-11" target="deulCfn8G_IX_LWm23YG-12" edge="1">
                    <mxGeometry relative="1" as="geometry">
                        <mxPoint x="340" y="1578.75" as="targetPoint"/>
                    </mxGeometry>
                </mxCell>
                <mxCell id="deulCfn8G_IX_LWm23YG-11" value="&lt;font style=&quot;font-size: 18px&quot;&gt;Out Station Area&lt;/font&gt;&lt;br&gt;&lt;br&gt;Set walkshed weight = 0.0" style="whiteSpace=wrap;html=1;" parent="oKbmgsCJO1qK6zfzRRM1-1" vertex="1">
                    <mxGeometry x="130" y="1578.75" width="180" height="80" as="geometry"/>
                </mxCell>
                <mxCell id="deulCfn8G_IX_LWm23YG-18" style="edgeStyle=orthogonalEdgeStyle;rounded=0;orthogonalLoop=1;jettySize=auto;html=1;entryX=0.5;entryY=0;entryDx=0;entryDy=0;" parent="oKbmgsCJO1qK6zfzRRM1-1" source="deulCfn8G_IX_LWm23YG-12" target="deulCfn8G_IX_LWm23YG-16" edge="1">
                    <mxGeometry relative="1" as="geometry">
                        <Array as="points">
                            <mxPoint x="570" y="1723"/>
                            <mxPoint x="640" y="1723"/>
                        </Array>
                    </mxGeometry>
                </mxCell>
                <mxCell id="deulCfn8G_IX_LWm23YG-12" value="Station Area weight&lt;br&gt;(max = 0.05)" style="ellipse;whiteSpace=wrap;html=1;aspect=fixed;" parent="oKbmgsCJO1qK6zfzRRM1-1" vertex="1">
                    <mxGeometry x="530" y="1535" width="80" height="80" as="geometry"/>
                </mxCell>
                <mxCell id="deulCfn8G_IX_LWm23YG-23" style="edgeStyle=orthogonalEdgeStyle;rounded=0;orthogonalLoop=1;jettySize=auto;html=1;exitX=0.5;exitY=1;exitDx=0;exitDy=0;" parent="oKbmgsCJO1qK6zfzRRM1-1" source="deulCfn8G_IX_LWm23YG-16" target="deulCfn8G_IX_LWm23YG-17" edge="1">
                    <mxGeometry relative="1" as="geometry"/>
                </mxCell>
                <mxCell id="deulCfn8G_IX_LWm23YG-16" value="Sum All wieghts for Total Suitability" style="rounded=1;whiteSpace=wrap;html=1;" parent="oKbmgsCJO1qK6zfzRRM1-1" vertex="1">
                    <mxGeometry x="580" y="1830" width="120" height="60" as="geometry"/>
                </mxCell>
                <mxCell id="deulCfn8G_IX_LWm23YG-17" value="Total Suitability&lt;br&gt;(max = 1.0)" style="ellipse;whiteSpace=wrap;html=1;aspect=fixed;" parent="oKbmgsCJO1qK6zfzRRM1-1" vertex="1">
                    <mxGeometry x="600" y="1950" width="80" height="80" as="geometry"/>
                </mxCell>
                <mxCell id="deulCfn8G_IX_LWm23YG-26" value="&#10;&#10;&lt;div style=&quot;color: rgb(212, 212, 212); background-color: rgb(30, 30, 30); font-family: consolas, &amp;quot;courier new&amp;quot;, monospace; font-weight: normal; font-size: 14px; line-height: 19px;&quot;&gt;&lt;div&gt;&lt;span style=&quot;color: #6a9955&quot;&gt;#&amp;nbsp;Suitability&amp;nbsp;weightings&lt;/span&gt;&lt;/div&gt;&lt;div&gt;&lt;span style=&quot;color: #d4d4d4&quot;&gt;weights&amp;nbsp;=&amp;nbsp;{&lt;/span&gt;&lt;/div&gt;&lt;div&gt;&lt;span style=&quot;color: #d4d4d4&quot;&gt;&amp;nbsp;&amp;nbsp;&amp;nbsp;&amp;nbsp;&lt;/span&gt;&lt;span style=&quot;color: #ce9178&quot;&gt;&quot;in_DO&quot;&lt;/span&gt;&lt;span style=&quot;color: #d4d4d4&quot;&gt;:&amp;nbsp;&lt;/span&gt;&lt;span style=&quot;color: #b5cea8&quot;&gt;0.6&lt;/span&gt;&lt;span style=&quot;color: #d4d4d4&quot;&gt;,&lt;/span&gt;&lt;/div&gt;&lt;div&gt;&lt;span style=&quot;color: #d4d4d4&quot;&gt;&amp;nbsp;&amp;nbsp;&amp;nbsp;&amp;nbsp;&lt;/span&gt;&lt;span style=&quot;color: #ce9178&quot;&gt;&quot;is_vacant&quot;&lt;/span&gt;&lt;span style=&quot;color: #d4d4d4&quot;&gt;:&amp;nbsp;&lt;/span&gt;&lt;span style=&quot;color: #b5cea8&quot;&gt;0.15&lt;/span&gt;&lt;span style=&quot;color: #d4d4d4&quot;&gt;,&lt;/span&gt;&lt;/div&gt;&lt;div&gt;&lt;span style=&quot;color: #d4d4d4&quot;&gt;&amp;nbsp;&amp;nbsp;&amp;nbsp;&amp;nbsp;&lt;/span&gt;&lt;span style=&quot;color: #ce9178&quot;&gt;&quot;in_TOD&quot;&lt;/span&gt;&lt;span style=&quot;color: #d4d4d4&quot;&gt;:&amp;nbsp;&lt;/span&gt;&lt;span style=&quot;color: #b5cea8&quot;&gt;0.05&lt;/span&gt;&lt;span style=&quot;color: #d4d4d4&quot;&gt;,&lt;/span&gt;&lt;/div&gt;&lt;div&gt;&lt;span style=&quot;color: #d4d4d4&quot;&gt;&amp;nbsp;&amp;nbsp;&amp;nbsp;&amp;nbsp;&lt;/span&gt;&lt;span style=&quot;color: #ce9178&quot;&gt;&quot;in_walkshed&quot;&lt;/span&gt;&lt;span style=&quot;color: #d4d4d4&quot;&gt;:&amp;nbsp;&lt;/span&gt;&lt;span style=&quot;color: #b5cea8&quot;&gt;0.1&lt;/span&gt;&lt;span style=&quot;color: #d4d4d4&quot;&gt;,&lt;/span&gt;&lt;/div&gt;&lt;div&gt;&lt;span style=&quot;color: #d4d4d4&quot;&gt;&amp;nbsp;&amp;nbsp;&amp;nbsp;&amp;nbsp;&lt;/span&gt;&lt;span style=&quot;color: #ce9178&quot;&gt;&quot;dev_size&quot;&lt;/span&gt;&lt;span style=&quot;color: #d4d4d4&quot;&gt;:&amp;nbsp;&lt;/span&gt;&lt;span style=&quot;color: #b5cea8&quot;&gt;0.1&lt;/span&gt;&lt;span style=&quot;color: #d4d4d4&quot;&gt;,&lt;/span&gt;&lt;/div&gt;&lt;div&gt;&lt;span style=&quot;color: #d4d4d4&quot;&gt;}&lt;/span&gt;&lt;/div&gt;&lt;br&gt;&lt;/div&gt;&#10;&#10;" style="text;html=1;strokeColor=none;fillColor=none;align=center;verticalAlign=middle;whiteSpace=wrap;rounded=0;" parent="oKbmgsCJO1qK6zfzRRM1-1" vertex="1">
                    <mxGeometry x="365" y="120" width="390" height="190" as="geometry"/>
                </mxCell>
            </root>
        </mxGraphModel>
    </diagram>
    <diagram id="-atWeOhjFYuCig9o2-Am" name="Page-2">
        <mxGraphModel dx="320" dy="802" grid="1" gridSize="10" guides="1" tooltips="1" connect="1" arrows="1" fold="1" page="1" pageScale="1" pageWidth="850" pageHeight="1100" math="0" shadow="0">
            <root>
                <mxCell id="nSO3jo5O8iswRtmhJ0rK-0"/>
                <mxCell id="nSO3jo5O8iswRtmhJ0rK-1" parent="nSO3jo5O8iswRtmhJ0rK-0"/>
                <mxCell id="nSO3jo5O8iswRtmhJ0rK-3" value="&lt;blockquote style=&quot;margin: 0 0 0 40px ; border: none ; padding: 0px&quot;&gt;&lt;b&gt;Calculate &lt;br&gt;&lt;/b&gt;&lt;b&gt;Change&lt;br&gt; &lt;/b&gt;&lt;b&gt;Capacity&lt;/b&gt;&lt;/blockquote&gt;" style="rounded=1;whiteSpace=wrap;html=1;absoluteArcSize=1;arcSize=14;strokeWidth=2;align=left;" parent="nSO3jo5O8iswRtmhJ0rK-1" vertex="1">
                    <mxGeometry x="70" y="60" width="130" height="90" as="geometry"/>
                </mxCell>
                <mxCell id="nSO3jo5O8iswRtmhJ0rK-4" value="Calculate Existing and Pipeline Sqft by activity" style="whiteSpace=wrap;html=1;rounded=1;strokeWidth=2;arcSize=14;" parent="nSO3jo5O8iswRtmhJ0rK-1" vertex="1">
                    <mxGeometry x="272.5" y="80" width="120" height="60" as="geometry"/>
                </mxCell>
                <mxCell id="nSO3jo5O8iswRtmhJ0rK-5" value="Apply TOD templates for Station Type" style="whiteSpace=wrap;html=1;rounded=1;strokeWidth=2;arcSize=14;" parent="nSO3jo5O8iswRtmhJ0rK-1" vertex="1">
                    <mxGeometry x="270" y="170" width="125" height="60" as="geometry"/>
                </mxCell>
                <mxCell id="nSO3jo5O8iswRtmhJ0rK-6" value="" style="edgeStyle=orthogonalEdgeStyle;rounded=0;orthogonalLoop=1;jettySize=auto;html=1;" parent="nSO3jo5O8iswRtmhJ0rK-1" source="nSO3jo5O8iswRtmhJ0rK-4" target="nSO3jo5O8iswRtmhJ0rK-5" edge="1">
                    <mxGeometry relative="1" as="geometry"/>
                </mxCell>
                <mxCell id="nSO3jo5O8iswRtmhJ0rK-7" value="Blend ExPI and TOD targets for BuildOut Capacity" style="whiteSpace=wrap;html=1;rounded=1;strokeWidth=2;arcSize=14;" parent="nSO3jo5O8iswRtmhJ0rK-1" vertex="1">
                    <mxGeometry x="467.5" y="120" width="125" height="60" as="geometry"/>
                </mxCell>
                <mxCell id="nSO3jo5O8iswRtmhJ0rK-8" style="edgeStyle=orthogonalEdgeStyle;rounded=0;orthogonalLoop=1;jettySize=auto;html=1;exitX=1;exitY=0.5;exitDx=0;exitDy=0;" parent="nSO3jo5O8iswRtmhJ0rK-1" source="nSO3jo5O8iswRtmhJ0rK-4" target="nSO3jo5O8iswRtmhJ0rK-7" edge="1">
                    <mxGeometry relative="1" as="geometry">
                        <Array as="points">
                            <mxPoint x="437.5" y="110"/>
                            <mxPoint x="437.5" y="150"/>
                        </Array>
                    </mxGeometry>
                </mxCell>
                <mxCell id="nSO3jo5O8iswRtmhJ0rK-9" value="" style="edgeStyle=orthogonalEdgeStyle;rounded=0;orthogonalLoop=1;jettySize=auto;html=1;" parent="nSO3jo5O8iswRtmhJ0rK-1" source="nSO3jo5O8iswRtmhJ0rK-5" target="nSO3jo5O8iswRtmhJ0rK-7" edge="1">
                    <mxGeometry relative="1" as="geometry">
                        <Array as="points">
                            <mxPoint x="437.5" y="200"/>
                            <mxPoint x="437.5" y="150"/>
                        </Array>
                    </mxGeometry>
                </mxCell>
                <mxCell id="nSO3jo5O8iswRtmhJ0rK-10" value="Blend ExPI and TOD targets for BuildOut Capacity" style="whiteSpace=wrap;html=1;rounded=1;strokeWidth=2;arcSize=14;" parent="nSO3jo5O8iswRtmhJ0rK-1" vertex="1">
                    <mxGeometry x="467.5" y="220" width="125" height="60" as="geometry"/>
                </mxCell>
                <mxCell id="nSO3jo5O8iswRtmhJ0rK-11" value="" style="edgeStyle=orthogonalEdgeStyle;rounded=0;orthogonalLoop=1;jettySize=auto;html=1;" parent="nSO3jo5O8iswRtmhJ0rK-1" source="nSO3jo5O8iswRtmhJ0rK-7" target="nSO3jo5O8iswRtmhJ0rK-10" edge="1">
                    <mxGeometry relative="1" as="geometry"/>
                </mxCell>
            </root>
        </mxGraphModel>
    </diagram>
</mxfile>